<?xml version="1.0" standalone="no"?>
<!DOCTYPE svg PUBLIC "-//W3C//DTD SVG 20010904//EN"
 "http://www.w3.org/TR/2001/REC-SVG-20010904/DTD/svg10.dtd">
<svg version="1.0" xmlns="http://www.w3.org/2000/svg"
 width="55.000000pt" height="55.000000pt" viewBox="0 0 55.000000 55.000000"
 preserveAspectRatio="xMidYMid meet">
<metadata>
Created by potrace 1.16, written by Peter Selinger 2001-2019
</metadata>
<g transform="translate(0.000000,55.000000) scale(0.010742,-0.010742)"
fill="#000000" stroke="none">
<path d="M2435 4459 c-745 -77 -1371 -573 -1613 -1280 -81 -234 -114 -476 -94
-689 29 -318 132 -613 306 -875 310 -464 794 -767 1345 -840 182 -25 348 -16
541 27 174 39 163 40 650 -72 l441 -102 24 22 24 22 -120 239 c-110 221 -119
243 -119 295 l0 57 79 82 c71 74 182 215 236 300 204 320 317 755 285 1091
-24 249 -82 451 -196 679 -188 379 -468 659 -849 850 -224 112 -424 170 -674
195 -115 11 -150 11 -266 -1z m353 -109 c719 -76 1306 -586 1481 -1285 37
-149 46 -235 46 -450 0 -290 -35 -480 -130 -704 -91 -215 -207 -384 -384 -559
l-115 -114 87 -174 c78 -155 87 -180 87 -229 l0 -55 -51 0 c-28 0 -199 34
-381 76 l-329 76 -137 -28 c-130 -27 -150 -29 -387 -29 -221 0 -263 3 -363 23
-162 33 -277 73 -437 152 -482 240 -807 664 -916 1199 -26 125 -37 443 -20
591 91 795 710 1418 1501 1509 106 12 338 12 448 1z"/>
</g>
</svg>
