<?xml version="1.0" standalone="no"?>
<!DOCTYPE svg PUBLIC "-//W3C//DTD SVG 20010904//EN"
 "http://www.w3.org/TR/2001/REC-SVG-20010904/DTD/svg10.dtd">
<svg version="1.0" xmlns="http://www.w3.org/2000/svg"
 width="36.000000pt" height="36.000000pt" viewBox="0 0 36.000000 36.000000"
 preserveAspectRatio="xMidYMid meet">
<metadata>
Created by potrace 1.16, written by Peter Selinger 2001-2019
</metadata>
<g transform="translate(0.000000,36.000000) scale(0.100000,-0.100000)"
fill="#000000" stroke="none">
<path d="M0 180 l0 -180 180 0 180 0 0 180 0 180 -180 0 -180 0 0 -180z m348
147 c2 -11 -24 -86 -58 -168 -59 -141 -64 -149 -90 -149 -21 0 -31 7 -39 28
-29 70 -55 96 -123 123 -37 14 -40 64 -5 75 12 3 42 16 67 26 25 11 59 27 76
34 18 8 51 23 75 33 53 24 92 23 97 -2z"/>
</g>
</svg>
