<?xml version="1.0" standalone="no"?>
<!DOCTYPE svg PUBLIC "-//W3C//DTD SVG 20010904//EN"
 "http://www.w3.org/TR/2001/REC-SVG-20010904/DTD/svg10.dtd">
<svg version="1.0" xmlns="http://www.w3.org/2000/svg"
 width="500.000000pt" height="500.000000pt" viewBox="0 0 500.000000 500.000000"
 preserveAspectRatio="xMidYMid meet">
<metadata>
Created by potrace 1.16, written by Peter Selinger 2001-2019
</metadata>
<g transform="translate(0.000000,500.000000) scale(0.100000,-0.100000)"
fill="#000000" stroke="none">
<path d="M2250 4910 c-202 -19 -467 -79 -655 -149 -507 -191 -873 -546 -949
-923 -9 -42 -16 -122 -16 -176 0 -348 226 -639 665 -857 251 -124 511 -210
860 -285 55 -11 110 -25 123 -30 l22 -10 0 -762 c0 -794 -9 -1074 -38 -1218
-20 -100 -12 -98 -162 -49 -279 91 -538 256 -771 489 -287 289 -496 656 -618
1085 -26 92 -31 100 -55 103 l-26 3 0 -589 0 -590 103 -82 c330 -261 669 -427
1097 -535 81 -20 315 -65 341 -65 37 0 -51 -96 -116 -126 -27 -13 -76 -26
-107 -30 -53 -6 -58 -9 -58 -30 l0 -24 705 0 705 0 0 24 c0 21 -5 24 -62 30
-101 11 -175 54 -222 127 l-17 27 83 11 c276 40 575 149 784 287 123 81 276
236 342 345 138 230 200 484 189 769 -15 343 -121 606 -327 810 -215 212 -502
351 -990 477 l-185 48 0 370 c1 385 9 510 46 654 51 203 161 311 316 311 39 0
43 2 43 25 l0 25 -705 0 -705 0 0 -24 c0 -21 5 -24 64 -28 152 -13 239 -106
291 -312 32 -126 43 -258 51 -595 7 -286 7 -291 -13 -291 -34 0 -263 66 -398
115 -309 112 -493 235 -605 403 -111 164 -122 358 -33 537 136 271 483 502
858 571 123 22 360 29 497 14 557 -61 970 -352 1452 -1022 50 -69 94 -123 97
-120 16 16 249 646 242 652 -34 29 -143 107 -215 153 -381 246 -887 413 -1383
456 -134 12 -416 12 -545 1z m860 -2627 c328 -109 510 -222 665 -416 72 -89
154 -244 180 -342 26 -95 31 -285 11 -386 -54 -267 -235 -476 -531 -615 -172
-80 -466 -155 -485 -124 -18 29 -40 190 -50 355 -5 94 -10 491 -10 883 l0 712
28 -6 c15 -3 101 -31 192 -61z"/>
</g>
</svg>
